<svg width="760" height="110" viewBox="0 0 760 110" fill="none" xmlns="http://www.w3.org/2000/svg">
<path d="M16.375 109.25C14.0417 109.25 12.2083 108.625 10.875 107.375C9.54167 106.125 8.875 104.667 8.875 103C8.875 101.333 9.54167 99.875 10.875 98.625C12.2083 97.375 14.0417 96.75 16.375 96.75H39.625C41.9583 96.75 43.7917 97.375 45.125 98.625C46.4583 99.875 47.125 101.333 47.125 103C47.125 104.667 46.4583 106.125 45.125 107.375C43.7917 108.625 41.9583 109.25 39.625 109.25H16.375ZM23.25 93.25C21.4167 93.25 19.875 92.625 18.625 91.375C17.4583 90.125 16.875 88.6667 16.875 87C16.875 85.3333 17.4583 83.875 18.625 82.625C19.875 81.375 21.4167 80.75 23.25 80.75H32.75C34.5833 80.75 36.0833 81.375 37.25 82.625C38.5 83.875 39.125 85.3333 39.125 87C39.125 88.6667 38.5 90.125 37.25 91.375C36.0833 92.625 34.5833 93.25 32.75 93.25H23.25ZM23.25 77.25C21.4167 77.25 19.875 76.625 18.625 75.375C17.4583 74.125 16.875 72.6667 16.875 71C16.875 69.3333 17.4583 67.875 18.625 66.625C19.875 65.375 21.4167 64.75 23.25 64.75H32.75C34.5833 64.75 36.0833 65.375 37.25 66.625C38.5 67.875 39.125 69.3333 39.125 71C39.125 72.6667 38.5 74.125 37.25 75.375C36.0833 76.625 34.5833 77.25 32.75 77.25H23.25ZM23.25 61.25C21.4167 61.25 19.875 60.625 18.625 59.375C17.4583 58.125 16.875 56.6667 16.875 55C16.875 53.3333 17.4583 51.875 18.625 50.625C19.875 49.375 21.4167 48.75 23.25 48.75H32.75C34.5833 48.75 36.0833 49.375 37.25 50.625C38.5 51.875 39.125 53.3333 39.125 55C39.125 56.6667 38.5 58.125 37.25 59.375C36.0833 60.625 34.5833 61.25 32.75 61.25H23.25ZM23.25 45.25C21.4167 45.25 19.875 44.625 18.625 43.375C17.4583 42.125 16.875 40.6667 16.875 39C16.875 37.3333 17.4583 35.875 18.625 34.625C19.875 33.375 21.4167 32.75 23.25 32.75H32.75C34.5833 32.75 36.0833 33.375 37.25 34.625C38.5 35.875 39.125 37.3333 39.125 39C39.125 40.6667 38.5 42.125 37.25 43.375C36.0833 44.625 34.5833 45.25 32.75 45.25H23.25ZM5.875 29.25C4.45833 29.25 3.25 28.625 2.25 27.375C1.33333 26.125 0.875 24.6667 0.875 23C0.875 21.3333 1.33333 19.875 2.25 18.625C3.25 17.375 4.45833 16.75 5.875 16.75H10.125C11.5417 16.75 12.7083 17.375 13.625 18.625C14.625 19.875 15.125 21.3333 15.125 23C15.125 24.6667 14.625 26.125 13.625 27.375C12.7083 28.625 11.5417 29.25 10.125 29.25H5.875ZM23.25 29.25C21.4167 29.25 19.875 28.625 18.625 27.375C17.4583 26.125 16.875 24.6667 16.875 23C16.875 21.3333 17.4583 19.875 18.625 18.625C19.875 17.375 21.4167 16.75 23.25 16.75H32.75C34.5833 16.75 36.0833 17.375 37.25 18.625C38.5 19.875 39.125 21.3333 39.125 23C39.125 24.6667 38.5 26.125 37.25 27.375C36.0833 28.625 34.5833 29.25 32.75 29.25H23.25ZM45.875 29.25C44.4583 29.25 43.25 28.625 42.25 27.375C41.3333 26.125 40.875 24.6667 40.875 23C40.875 21.3333 41.3333 19.875 42.25 18.625C43.25 17.375 44.4583 16.75 45.875 16.75H50.125C51.5417 16.75 52.7083 17.375 53.625 18.625C54.625 19.875 55.125 21.3333 55.125 23C55.125 24.6667 54.625 26.125 53.625 27.375C52.7083 28.625 51.5417 29.25 50.125 29.25H45.875ZM8.375 13.25C6.04167 13.25 4.20833 12.625 2.875 11.375C1.54167 10.125 0.875 8.66667 0.875 7C0.875 5.33333 1.54167 3.875 2.875 2.625C4.20833 1.375 6.04167 0.75 8.375 0.75H47.625C49.9583 0.75 51.7917 1.375 53.125 2.625C54.4583 3.875 55.125 5.33333 55.125 7C55.125 8.66667 54.4583 10.125 53.125 11.375C51.7917 12.625 49.9583 13.25 47.625 13.25H8.375ZM80.375 109.25C78.0417 109.25 76.2083 108.625 74.875 107.375C73.5417 106.125 72.875 104.667 72.875 103C72.875 101.333 73.5417 99.875 74.875 98.625C76.2083 97.375 78.0417 96.75 80.375 96.75H103.625C105.958 96.75 107.792 97.375 109.125 98.625C110.458 99.875 111.125 101.333 111.125 103C111.125 104.667 110.458 106.125 109.125 107.375C107.792 108.625 105.958 109.25 103.625 109.25H80.375ZM87.25 93.25C85.4167 93.25 83.875 92.625 82.625 91.375C81.4583 90.125 80.875 88.6667 80.875 87C80.875 85.3333 81.4583 83.875 82.625 82.625C83.875 81.375 85.4167 80.75 87.25 80.75H96.75C98.5833 80.75 100.083 81.375 101.25 82.625C102.5 83.875 103.125 85.3333 103.125 87C103.125 88.6667 102.5 90.125 101.25 91.375C100.083 92.625 98.5833 93.25 96.75 93.25H87.25ZM87.25 77.25C85.4167 77.25 83.875 76.625 82.625 75.375C81.4583 74.125 80.875 72.6667 80.875 71C80.875 69.3333 81.4583 67.875 82.625 66.625C83.875 65.375 85.4167 64.75 87.25 64.75H96.75C98.5833 64.75 100.083 65.375 101.25 66.625C102.5 67.875 103.125 69.3333 103.125 71C103.125 72.6667 102.5 74.125 101.25 75.375C100.083 76.625 98.5833 77.25 96.75 77.25H87.25ZM80.375 61.25C78.0417 61.25 76.2083 60.625 74.875 59.375C73.5417 58.125 72.875 56.6667 72.875 55C72.875 53.3333 73.5417 51.875 74.875 50.625C76.2083 49.375 78.0417 48.75 80.375 48.75H103.625C105.958 48.75 107.792 49.375 109.125 50.625C110.458 51.875 111.125 53.3333 111.125 55C111.125 56.6667 110.458 58.125 109.125 59.375C107.792 60.625 105.958 61.25 103.625 61.25H80.375ZM71.25 45.25C69.4167 45.25 67.875 44.625 66.625 43.375C65.4583 42.125 64.875 40.6667 64.875 39C64.875 37.3333 65.4583 35.875 66.625 34.625C67.875 33.375 69.4167 32.75 71.25 32.75H80.75C82.5833 32.75 84.0833 33.375 85.25 34.625C86.5 35.875 87.125 37.3333 87.125 39C87.125 40.6667 86.5 42.125 85.25 43.375C84.0833 44.625 82.5833 45.25 80.75 45.25H71.25ZM103.25 45.25C101.417 45.25 99.875 44.625 98.625 43.375C97.4583 42.125 96.875 40.6667 96.875 39C96.875 37.3333 97.4583 35.875 98.625 34.625C99.875 33.375 101.417 32.75 103.25 32.75H112.75C114.583 32.75 116.083 33.375 117.25 34.625C118.5 35.875 119.125 37.3333 119.125 39C119.125 40.6667 118.5 42.125 117.25 43.375C116.083 44.625 114.583 45.25 112.75 45.25H103.25ZM63.25 29.25C61.4167 29.25 59.9167 28.625 58.75 27.375C57.5 26.125 56.875 24.6667 56.875 23C56.875 21.3333 57.5 19.875 58.75 18.625C59.9167 17.375 61.4167 16.75 63.25 16.75H72.75C74.5833 16.75 76.0833 17.375 77.25 18.625C78.5 19.875 79.125 21.3333 79.125 23C79.125 24.6667 78.5 26.125 77.25 27.375C76.0833 28.625 74.5833 29.25 72.75 29.25H63.25ZM111.25 29.25C109.417 29.25 107.875 28.625 106.625 27.375C105.458 26.125 104.875 24.6667 104.875 23C104.875 21.3333 105.458 19.875 106.625 18.625C107.875 17.375 109.417 16.75 111.25 16.75H120.75C122.583 16.75 124.083 17.375 125.25 18.625C126.5 19.875 127.125 21.3333 127.125 23C127.125 24.6667 126.5 26.125 125.25 27.375C124.083 28.625 122.583 29.25 120.75 29.25H111.25ZM63.25 13.25C61.4167 13.25 59.9167 12.625 58.75 11.375C57.5 10.125 56.875 8.66667 56.875 7C56.875 5.33333 57.5 3.875 58.75 2.625C59.9167 1.375 61.4167 0.75 63.25 0.75H72.75C74.5833 0.75 76.0833 1.375 77.25 2.625C78.5 3.875 79.125 5.33333 79.125 7C79.125 8.66667 78.5 10.125 77.25 11.375C76.0833 12.625 74.5833 13.25 72.75 13.25H63.25ZM111.25 13.25C109.417 13.25 107.875 12.625 106.625 11.375C105.458 10.125 104.875 8.66667 104.875 7C104.875 5.33333 105.458 3.875 106.625 2.625C107.875 1.375 109.417 0.75 111.25 0.75H120.75C122.583 0.75 124.083 1.375 125.25 2.625C126.5 3.875 127.125 5.33333 127.125 7C127.125 8.66667 126.5 10.125 125.25 11.375C124.083 12.625 122.583 13.25 120.75 13.25H111.25ZM128.375 109.25C126.042 109.25 124.208 108.625 122.875 107.375C121.542 106.125 120.875 104.667 120.875 103C120.875 101.333 121.542 99.875 122.875 98.625C124.208 97.375 126.042 96.75 128.375 96.75H151.625C153.958 96.75 155.792 97.375 157.125 98.625C158.458 99.875 159.125 101.333 159.125 103C159.125 104.667 158.458 106.125 157.125 107.375C155.792 108.625 153.958 109.25 151.625 109.25H128.375ZM135.25 93.25C133.417 93.25 131.875 92.625 130.625 91.375C129.458 90.125 128.875 88.6667 128.875 87C128.875 85.3333 129.458 83.875 130.625 82.625C131.875 81.375 133.417 80.75 135.25 80.75H144.75C146.583 80.75 148.083 81.375 149.25 82.625C150.5 83.875 151.125 85.3333 151.125 87C151.125 88.6667 150.5 90.125 149.25 91.375C148.083 92.625 146.583 93.25 144.75 93.25H135.25ZM135.25 77.25C133.417 77.25 131.875 76.625 130.625 75.375C129.458 74.125 128.875 72.6667 128.875 71C128.875 69.3333 129.458 67.875 130.625 66.625C131.875 65.375 133.417 64.75 135.25 64.75H144.75C146.583 64.75 148.083 65.375 149.25 66.625C150.5 67.875 151.125 69.3333 151.125 71C151.125 72.6667 150.5 74.125 149.25 75.375C148.083 76.625 146.583 77.25 144.75 77.25H135.25ZM136.375 61.25C134.042 61.25 132.208 60.625 130.875 59.375C129.542 58.125 128.875 56.6667 128.875 55C128.875 53.3333 129.542 51.875 130.875 50.625C132.208 49.375 134.042 48.75 136.375 48.75H167.625C169.958 48.75 171.792 49.375 173.125 50.625C174.458 51.875 175.125 53.3333 175.125 55C175.125 56.6667 174.458 58.125 173.125 59.375C171.792 60.625 169.958 61.25 167.625 61.25H136.375ZM135.25 45.25C133.417 45.25 131.875 44.625 130.625 43.375C129.458 42.125 128.875 40.6667 128.875 39C128.875 37.3333 129.458 35.875 130.625 34.625C131.875 33.375 133.417 32.75 135.25 32.75H144.75C146.583 32.75 148.083 33.375 149.25 34.625C150.5 35.875 151.125 37.3333 151.125 39C151.125 40.6667 150.5 42.125 149.25 43.375C148.083 44.625 146.583 45.25 144.75 45.25H135.25ZM167.25 45.25C165.417 45.25 163.875 44.625 162.625 43.375C161.458 42.125 160.875 40.6667 160.875 39C160.875 37.3333 161.458 35.875 162.625 34.625C163.875 33.375 165.417 32.75 167.25 32.75H176.75C178.583 32.75 180.083 33.375 181.25 34.625C182.5 35.875 183.125 37.3333 183.125 39C183.125 40.6667 182.5 42.125 181.25 43.375C180.083 44.625 178.583 45.25 176.75 45.25H167.25ZM135.25 29.25C133.417 29.25 131.875 28.625 130.625 27.375C129.458 26.125 128.875 24.6667 128.875 23C128.875 21.3333 129.458 19.875 130.625 18.625C131.875 17.375 133.417 16.75 135.25 16.75H144.75C146.583 16.75 148.083 17.375 149.25 18.625C150.5 19.875 151.125 21.3333 151.125 23C151.125 24.6667 150.5 26.125 149.25 27.375C148.083 28.625 146.583 29.25 144.75 29.25H135.25ZM167.25 29.25C165.417 29.25 163.875 28.625 162.625 27.375C161.458 26.125 160.875 24.6667 160.875 23C160.875 21.3333 161.458 19.875 162.625 18.625C163.875 17.375 165.417 16.75 167.25 16.75H176.75C178.583 16.75 180.083 17.375 181.25 18.625C182.5 19.875 183.125 21.3333 183.125 23C183.125 24.6667 182.5 26.125 181.25 27.375C180.083 28.625 178.583 29.25 176.75 29.25H167.25ZM128.375 13.25C126.042 13.25 124.208 12.625 122.875 11.375C121.542 10.125 120.875 8.66667 120.875 7C120.875 5.33333 121.542 3.875 122.875 2.625C124.208 1.375 126.042 0.75 128.375 0.75H167.625C169.958 0.75 171.792 1.375 173.125 2.625C174.458 3.875 175.125 5.33333 175.125 7C175.125 8.66667 174.458 10.125 173.125 11.375C171.792 12.625 169.958 13.25 167.625 13.25H128.375ZM192.375 109.25C190.042 109.25 188.208 108.625 186.875 107.375C185.542 106.125 184.875 104.667 184.875 103C184.875 101.333 185.542 99.875 186.875 98.625C188.208 97.375 190.042 96.75 192.375 96.75H239.625C241.958 96.75 243.792 97.375 245.125 98.625C246.458 99.875 247.125 101.333 247.125 103C247.125 104.667 246.458 106.125 245.125 107.375C243.792 108.625 241.958 109.25 239.625 109.25H192.375ZM199.25 93.25C197.417 93.25 195.875 92.625 194.625 91.375C193.458 90.125 192.875 88.6667 192.875 87C192.875 85.3333 193.458 83.875 194.625 82.625C195.875 81.375 197.417 80.75 199.25 80.75H208.75C210.583 80.75 212.083 81.375 213.25 82.625C214.5 83.875 215.125 85.3333 215.125 87C215.125 88.6667 214.5 90.125 213.25 91.375C212.083 92.625 210.583 93.25 208.75 93.25H199.25ZM231.25 93.25C229.417 93.25 227.875 92.625 226.625 91.375C225.458 90.125 224.875 88.6667 224.875 87C224.875 85.3333 225.458 83.875 226.625 82.625C227.875 81.375 229.417 80.75 231.25 80.75H240.75C242.583 80.75 244.083 81.375 245.25 82.625C246.5 83.875 247.125 85.3333 247.125 87C247.125 88.6667 246.5 90.125 245.25 91.375C244.083 92.625 242.583 93.25 240.75 93.25H231.25ZM199.25 77.25C197.417 77.25 195.875 76.625 194.625 75.375C193.458 74.125 192.875 72.6667 192.875 71C192.875 69.3333 193.458 67.875 194.625 66.625C195.875 65.375 197.417 64.75 199.25 64.75H208.75C210.583 64.75 212.083 65.375 213.25 66.625C214.5 67.875 215.125 69.3333 215.125 71C215.125 72.6667 214.5 74.125 213.25 75.375C212.083 76.625 210.583 77.25 208.75 77.25H199.25ZM200.375 61.25C198.042 61.25 196.208 60.625 194.875 59.375C193.542 58.125 192.875 56.6667 192.875 55C192.875 53.3333 193.542 51.875 194.875 50.625C196.208 49.375 198.042 48.75 200.375 48.75H223.625C225.958 48.75 227.792 49.375 229.125 50.625C230.458 51.875 231.125 53.3333 231.125 55C231.125 56.6667 230.458 58.125 229.125 59.375C227.792 60.625 225.958 61.25 223.625 61.25H200.375ZM199.25 45.25C197.417 45.25 195.875 44.625 194.625 43.375C193.458 42.125 192.875 40.6667 192.875 39C192.875 37.3333 193.458 35.875 194.625 34.625C195.875 33.375 197.417 32.75 199.25 32.75H208.75C210.583 32.75 212.083 33.375 213.25 34.625C214.5 35.875 215.125 37.3333 215.125 39C215.125 40.6667 214.5 42.125 213.25 43.375C212.083 44.625 210.583 45.25 208.75 45.25H199.25ZM199.25 29.25C197.417 29.25 195.875 28.625 194.625 27.375C193.458 26.125 192.875 24.6667 192.875 23C192.875 21.3333 193.458 19.875 194.625 18.625C195.875 17.375 197.417 16.75 199.25 16.75H208.75C210.583 16.75 212.083 17.375 213.25 18.625C214.5 19.875 215.125 21.3333 215.125 23C215.125 24.6667 214.5 26.125 213.25 27.375C212.083 28.625 210.583 29.25 208.75 29.25H199.25ZM231.25 29.25C229.417 29.25 227.875 28.625 226.625 27.375C225.458 26.125 224.875 24.6667 224.875 23C224.875 21.3333 225.458 19.875 226.625 18.625C227.875 17.375 229.417 16.75 231.25 16.75H240.75C242.583 16.75 244.083 17.375 245.25 18.625C246.5 19.875 247.125 21.3333 247.125 23C247.125 24.6667 246.5 26.125 245.25 27.375C244.083 28.625 242.583 29.25 240.75 29.25H231.25ZM192.375 13.25C190.042 13.25 188.208 12.625 186.875 11.375C185.542 10.125 184.875 8.66667 184.875 7C184.875 5.33333 185.542 3.875 186.875 2.625C188.208 1.375 190.042 0.75 192.375 0.75H239.625C241.958 0.75 243.792 1.375 245.125 2.625C246.458 3.875 247.125 5.33333 247.125 7C247.125 8.66667 246.458 10.125 245.125 11.375C243.792 12.625 241.958 13.25 239.625 13.25H192.375ZM264.375 61.25C262.042 61.25 260.208 60.625 258.875 59.375C257.542 58.125 256.875 56.6667 256.875 55C256.875 53.3333 257.542 51.875 258.875 50.625C260.208 49.375 262.042 48.75 264.375 48.75H303.625C305.958 48.75 307.792 49.375 309.125 50.625C310.458 51.875 311.125 53.3333 311.125 55C311.125 56.6667 310.458 58.125 309.125 59.375C307.792 60.625 305.958 61.25 303.625 61.25H264.375ZM392.375 61.25C390.042 61.25 388.208 60.625 386.875 59.375C385.542 58.125 384.875 56.6667 384.875 55C384.875 53.3333 385.542 51.875 386.875 50.625C388.208 49.375 390.042 48.75 392.375 48.75H431.625C433.958 48.75 435.792 49.375 437.125 50.625C438.458 51.875 439.125 53.3333 439.125 55C439.125 56.6667 438.458 58.125 437.125 59.375C435.792 60.625 433.958 61.25 431.625 61.25H392.375ZM455.25 109.25C453.417 109.25 451.875 108.625 450.625 107.375C449.458 106.125 448.875 104.667 448.875 103C448.875 101.333 449.458 99.875 450.625 98.625C451.875 97.375 453.417 96.75 455.25 96.75H464.75C466.583 96.75 468.083 97.375 469.25 98.625C470.5 99.875 471.125 101.333 471.125 103C471.125 104.667 470.5 106.125 469.25 107.375C468.083 108.625 466.583 109.25 464.75 109.25H455.25ZM487.25 109.25C485.417 109.25 483.875 108.625 482.625 107.375C481.458 106.125 480.875 104.667 480.875 103C480.875 101.333 481.458 99.875 482.625 98.625C483.875 97.375 485.417 96.75 487.25 96.75H496.75C498.583 96.75 500.083 97.375 501.25 98.625C502.5 99.875 503.125 101.333 503.125 103C503.125 104.667 502.5 106.125 501.25 107.375C500.083 108.625 498.583 109.25 496.75 109.25H487.25ZM455.25 93.25C453.417 93.25 451.875 92.625 450.625 91.375C449.458 90.125 448.875 88.6667 448.875 87C448.875 85.3333 449.458 83.875 450.625 82.625C451.875 81.375 453.417 80.75 455.25 80.75H464.75C466.583 80.75 468.083 81.375 469.25 82.625C470.5 83.875 471.125 85.3333 471.125 87C471.125 88.6667 470.5 90.125 469.25 91.375C468.083 92.625 466.583 93.25 464.75 93.25H455.25ZM487.25 93.25C485.417 93.25 483.875 92.625 482.625 91.375C481.458 90.125 480.875 88.6667 480.875 87C480.875 85.3333 481.458 83.875 482.625 82.625C483.875 81.375 485.417 80.75 487.25 80.75H496.75C498.583 80.75 500.083 81.375 501.25 82.625C502.5 83.875 503.125 85.3333 503.125 87C503.125 88.6667 502.5 90.125 501.25 91.375C500.083 92.625 498.583 93.25 496.75 93.25H487.25ZM455.25 77.25C453.417 77.25 451.875 76.625 450.625 75.375C449.458 74.125 448.875 72.6667 448.875 71C448.875 69.3333 449.458 67.875 450.625 66.625C451.875 65.375 453.417 64.75 455.25 64.75H464.75C466.583 64.75 468.083 65.375 469.25 66.625C470.5 67.875 471.125 69.3333 471.125 71C471.125 72.6667 470.5 74.125 469.25 75.375C468.083 76.625 466.583 77.25 464.75 77.25H455.25ZM487.25 77.25C485.417 77.25 483.875 76.625 482.625 75.375C481.458 74.125 480.875 72.6667 480.875 71C480.875 69.3333 481.458 67.875 482.625 66.625C483.875 65.375 485.417 64.75 487.25 64.75H496.75C498.583 64.75 500.083 65.375 501.25 66.625C502.5 67.875 503.125 69.3333 503.125 71C503.125 72.6667 502.5 74.125 501.25 75.375C500.083 76.625 498.583 77.25 496.75 77.25H487.25ZM456.375 61.25C454.042 61.25 452.208 60.625 450.875 59.375C449.542 58.125 448.875 56.6667 448.875 55C448.875 53.3333 449.542 51.875 450.875 50.625C452.208 49.375 454.042 48.75 456.375 48.75H495.625C497.958 48.75 499.792 49.375 501.125 50.625C502.458 51.875 503.125 53.3333 503.125 55C503.125 56.6667 502.458 58.125 501.125 59.375C499.792 60.625 497.958 61.25 495.625 61.25H456.375ZM455.25 45.25C453.417 45.25 451.875 44.625 450.625 43.375C449.458 42.125 448.875 40.6667 448.875 39C448.875 37.3333 449.458 35.875 450.625 34.625C451.875 33.375 453.417 32.75 455.25 32.75H464.75C466.583 32.75 468.083 33.375 469.25 34.625C470.5 35.875 471.125 37.3333 471.125 39C471.125 40.6667 470.5 42.125 469.25 43.375C468.083 44.625 466.583 45.25 464.75 45.25H455.25ZM487.25 45.25C485.417 45.25 483.875 44.625 482.625 43.375C481.458 42.125 480.875 40.6667 480.875 39C480.875 37.3333 481.458 35.875 482.625 34.625C483.875 33.375 485.417 32.75 487.25 32.75H496.75C498.583 32.75 500.083 33.375 501.25 34.625C502.5 35.875 503.125 37.3333 503.125 39C503.125 40.6667 502.5 42.125 501.25 43.375C500.083 44.625 498.583 45.25 496.75 45.25H487.25ZM455.25 29.25C453.417 29.25 451.875 28.625 450.625 27.375C449.458 26.125 448.875 24.6667 448.875 23C448.875 21.3333 449.458 19.875 450.625 18.625C451.875 17.375 453.417 16.75 455.25 16.75H464.75C466.583 16.75 468.083 17.375 469.25 18.625C470.5 19.875 471.125 21.3333 471.125 23C471.125 24.6667 470.5 26.125 469.25 27.375C468.083 28.625 466.583 29.25 464.75 29.25H455.25ZM487.25 29.25C485.417 29.25 483.875 28.625 482.625 27.375C481.458 26.125 480.875 24.6667 480.875 23C480.875 21.3333 481.458 19.875 482.625 18.625C483.875 17.375 485.417 16.75 487.25 16.75H496.75C498.583 16.75 500.083 17.375 501.25 18.625C502.5 19.875 503.125 21.3333 503.125 23C503.125 24.6667 502.5 26.125 501.25 27.375C500.083 28.625 498.583 29.25 496.75 29.25H487.25ZM455.25 13.25C453.417 13.25 451.875 12.625 450.625 11.375C449.458 10.125 448.875 8.66667 448.875 7C448.875 5.33333 449.458 3.875 450.625 2.625C451.875 1.375 453.417 0.75 455.25 0.75H464.75C466.583 0.75 468.083 1.375 469.25 2.625C470.5 3.875 471.125 5.33333 471.125 7C471.125 8.66667 470.5 10.125 469.25 11.375C468.083 12.625 466.583 13.25 464.75 13.25H455.25ZM487.25 13.25C485.417 13.25 483.875 12.625 482.625 11.375C481.458 10.125 480.875 8.66667 480.875 7C480.875 5.33333 481.458 3.875 482.625 2.625C483.875 1.375 485.417 0.75 487.25 0.75H496.75C498.583 0.75 500.083 1.375 501.25 2.625C502.5 3.875 503.125 5.33333 503.125 7C503.125 8.66667 502.5 10.125 501.25 11.375C500.083 12.625 498.583 13.25 496.75 13.25H487.25ZM527.25 109.25C525.417 109.25 523.875 108.625 522.625 107.375C521.458 106.125 520.875 104.667 520.875 103C520.875 101.333 521.458 99.875 522.625 98.625C523.875 97.375 525.417 96.75 527.25 96.75H544.75C546.583 96.75 548.083 97.375 549.25 98.625C550.5 99.875 551.125 101.333 551.125 103C551.125 104.667 550.5 106.125 549.25 107.375C548.083 108.625 546.583 109.25 544.75 109.25H527.25ZM519.25 93.25C517.417 93.25 515.875 92.625 514.625 91.375C513.458 90.125 512.875 88.6667 512.875 87C512.875 85.3333 513.458 83.875 514.625 82.625C515.875 81.375 517.417 80.75 519.25 80.75H528.75C530.583 80.75 532.083 81.375 533.25 82.625C534.5 83.875 535.125 85.3333 535.125 87C535.125 88.6667 534.5 90.125 533.25 91.375C532.083 92.625 530.583 93.25 528.75 93.25H519.25ZM543.25 93.25C541.417 93.25 539.875 92.625 538.625 91.375C537.458 90.125 536.875 88.6667 536.875 87C536.875 85.3333 537.458 83.875 538.625 82.625C539.875 81.375 541.417 80.75 543.25 80.75H552.75C554.583 80.75 556.083 81.375 557.25 82.625C558.5 83.875 559.125 85.3333 559.125 87C559.125 88.6667 558.5 90.125 557.25 91.375C556.083 92.625 554.583 93.25 552.75 93.25H543.25ZM511.25 77.25C509.417 77.25 507.917 76.625 506.75 75.375C505.5 74.125 504.875 72.6667 504.875 71C504.875 69.3333 505.5 67.875 506.75 66.625C507.917 65.375 509.417 64.75 511.25 64.75H520.75C522.583 64.75 524.083 65.375 525.25 66.625C526.5 67.875 527.125 69.3333 527.125 71C527.125 72.6667 526.5 74.125 525.25 75.375C524.083 76.625 522.583 77.25 520.75 77.25H511.25ZM551.25 77.25C549.417 77.25 547.875 76.625 546.625 75.375C545.458 74.125 544.875 72.6667 544.875 71C544.875 69.3333 545.458 67.875 546.625 66.625C547.875 65.375 549.417 64.75 551.25 64.75H560.75C562.583 64.75 564.083 65.375 565.25 66.625C566.5 67.875 567.125 69.3333 567.125 71C567.125 72.6667 566.5 74.125 565.25 75.375C564.083 76.625 562.583 77.25 560.75 77.25H551.25ZM511.25 61.25C509.417 61.25 507.917 60.625 506.75 59.375C505.5 58.125 504.875 56.6667 504.875 55C504.875 53.3333 505.5 51.875 506.75 50.625C507.917 49.375 509.417 48.75 511.25 48.75H520.75C522.583 48.75 524.083 49.375 525.25 50.625C526.5 51.875 527.125 53.3333 527.125 55C527.125 56.6667 526.5 58.125 525.25 59.375C524.083 60.625 522.583 61.25 520.75 61.25H511.25ZM551.25 61.25C549.417 61.25 547.875 60.625 546.625 59.375C545.458 58.125 544.875 56.6667 544.875 55C544.875 53.3333 545.458 51.875 546.625 50.625C547.875 49.375 549.417 48.75 551.25 48.75H560.75C562.583 48.75 564.083 49.375 565.25 50.625C566.5 51.875 567.125 53.3333 567.125 55C567.125 56.6667 566.5 58.125 565.25 59.375C564.083 60.625 562.583 61.25 560.75 61.25H551.25ZM511.25 45.25C509.417 45.25 507.917 44.625 506.75 43.375C505.5 42.125 504.875 40.6667 504.875 39C504.875 37.3333 505.5 35.875 506.75 34.625C507.917 33.375 509.417 32.75 511.25 32.75H520.75C522.583 32.75 524.083 33.375 525.25 34.625C526.5 35.875 527.125 37.3333 527.125 39C527.125 40.6667 526.5 42.125 525.25 43.375C524.083 44.625 522.583 45.25 520.75 45.25H511.25ZM551.25 45.25C549.417 45.25 547.875 44.625 546.625 43.375C545.458 42.125 544.875 40.6667 544.875 39C544.875 37.3333 545.458 35.875 546.625 34.625C547.875 33.375 549.417 32.75 551.25 32.75H560.75C562.583 32.75 564.083 33.375 565.25 34.625C566.5 35.875 567.125 37.3333 567.125 39C567.125 40.6667 566.5 42.125 565.25 43.375C564.083 44.625 562.583 45.25 560.75 45.25H551.25ZM519.25 29.25C517.417 29.25 515.875 28.625 514.625 27.375C513.458 26.125 512.875 24.6667 512.875 23C512.875 21.3333 513.458 19.875 514.625 18.625C515.875 17.375 517.417 16.75 519.25 16.75H528.75C530.583 16.75 532.083 17.375 533.25 18.625C534.5 19.875 535.125 21.3333 535.125 23C535.125 24.6667 534.5 26.125 533.25 27.375C532.083 28.625 530.583 29.25 528.75 29.25H519.25ZM543.25 29.25C541.417 29.25 539.875 28.625 538.625 27.375C537.458 26.125 536.875 24.6667 536.875 23C536.875 21.3333 537.458 19.875 538.625 18.625C539.875 17.375 541.417 16.75 543.25 16.75H552.75C554.583 16.75 556.083 17.375 557.25 18.625C558.5 19.875 559.125 21.3333 559.125 23C559.125 24.6667 558.5 26.125 557.25 27.375C556.083 28.625 554.583 29.25 552.75 29.25H543.25ZM527.25 13.25C525.417 13.25 523.875 12.625 522.625 11.375C521.458 10.125 520.875 8.66667 520.875 7C520.875 5.33333 521.458 3.875 522.625 2.625C523.875 1.375 525.417 0.75 527.25 0.75H544.75C546.583 0.75 548.083 1.375 549.25 2.625C550.5 3.875 551.125 5.33333 551.125 7C551.125 8.66667 550.5 10.125 549.25 11.375C548.083 12.625 546.583 13.25 544.75 13.25H527.25ZM576.375 109.25C574.042 109.25 572.208 108.625 570.875 107.375C569.542 106.125 568.875 104.667 568.875 103C568.875 101.333 569.542 99.875 570.875 98.625C572.208 97.375 574.042 96.75 576.375 96.75H623.625C625.958 96.75 627.792 97.375 629.125 98.625C630.458 99.875 631.125 101.333 631.125 103C631.125 104.667 630.458 106.125 629.125 107.375C627.792 108.625 625.958 109.25 623.625 109.25H576.375ZM583.25 93.25C581.417 93.25 579.875 92.625 578.625 91.375C577.458 90.125 576.875 88.6667 576.875 87C576.875 85.3333 577.458 83.875 578.625 82.625C579.875 81.375 581.417 80.75 583.25 80.75H592.75C594.583 80.75 596.083 81.375 597.25 82.625C598.5 83.875 599.125 85.3333 599.125 87C599.125 88.6667 598.5 90.125 597.25 91.375C596.083 92.625 594.583 93.25 592.75 93.25H583.25ZM615.25 93.25C613.417 93.25 611.875 92.625 610.625 91.375C609.458 90.125 608.875 88.6667 608.875 87C608.875 85.3333 609.458 83.875 610.625 82.625C611.875 81.375 613.417 80.75 615.25 80.75H624.75C626.583 80.75 628.083 81.375 629.25 82.625C630.5 83.875 631.125 85.3333 631.125 87C631.125 88.6667 630.5 90.125 629.25 91.375C628.083 92.625 626.583 93.25 624.75 93.25H615.25ZM583.25 77.25C581.417 77.25 579.875 76.625 578.625 75.375C577.458 74.125 576.875 72.6667 576.875 71C576.875 69.3333 577.458 67.875 578.625 66.625C579.875 65.375 581.417 64.75 583.25 64.75H592.75C594.583 64.75 596.083 65.375 597.25 66.625C598.5 67.875 599.125 69.3333 599.125 71C599.125 72.6667 598.5 74.125 597.25 75.375C596.083 76.625 594.583 77.25 592.75 77.25H583.25ZM621.875 77.25C620.458 77.25 619.25 76.625 618.25 75.375C617.333 74.125 616.875 72.6667 616.875 71C616.875 69.3333 617.333 67.875 618.25 66.625C619.25 65.375 620.458 64.75 621.875 64.75H626.125C627.542 64.75 628.708 65.375 629.625 66.625C630.625 67.875 631.125 69.3333 631.125 71C631.125 72.6667 630.625 74.125 629.625 75.375C628.708 76.625 627.542 77.25 626.125 77.25H621.875ZM583.25 61.25C581.417 61.25 579.875 60.625 578.625 59.375C577.458 58.125 576.875 56.6667 576.875 55C576.875 53.3333 577.458 51.875 578.625 50.625C579.875 49.375 581.417 48.75 583.25 48.75H592.75C594.583 48.75 596.083 49.375 597.25 50.625C598.5 51.875 599.125 53.3333 599.125 55C599.125 56.6667 598.5 58.125 597.25 59.375C596.083 60.625 594.583 61.25 592.75 61.25H583.25ZM583.25 45.25C581.417 45.25 579.875 44.625 578.625 43.375C577.458 42.125 576.875 40.6667 576.875 39C576.875 37.3333 577.458 35.875 578.625 34.625C579.875 33.375 581.417 32.75 583.25 32.75H592.75C594.583 32.75 596.083 33.375 597.25 34.625C598.5 35.875 599.125 37.3333 599.125 39C599.125 40.6667 598.5 42.125 597.25 43.375C596.083 44.625 594.583 45.25 592.75 45.25H583.25ZM583.25 29.25C581.417 29.25 579.875 28.625 578.625 27.375C577.458 26.125 576.875 24.6667 576.875 23C576.875 21.3333 577.458 19.875 578.625 18.625C579.875 17.375 581.417 16.75 583.25 16.75H592.75C594.583 16.75 596.083 17.375 597.25 18.625C598.5 19.875 599.125 21.3333 599.125 23C599.125 24.6667 598.5 26.125 597.25 27.375C596.083 28.625 594.583 29.25 592.75 29.25H583.25ZM576.375 13.25C574.042 13.25 572.208 12.625 570.875 11.375C569.542 10.125 568.875 8.66667 568.875 7C568.875 5.33333 569.542 3.875 570.875 2.625C572.208 1.375 574.042 0.75 576.375 0.75H599.625C601.958 0.75 603.792 1.375 605.125 2.625C606.458 3.875 607.125 5.33333 607.125 7C607.125 8.66667 606.458 10.125 605.125 11.375C603.792 12.625 601.958 13.25 599.625 13.25H576.375ZM648.375 109.25C646.042 109.25 644.208 108.625 642.875 107.375C641.542 106.125 640.875 104.667 640.875 103C640.875 101.333 641.542 99.875 642.875 98.625C644.208 97.375 646.042 96.75 648.375 96.75H687.625C689.958 96.75 691.792 97.375 693.125 98.625C694.458 99.875 695.125 101.333 695.125 103C695.125 104.667 694.458 106.125 693.125 107.375C691.792 108.625 689.958 109.25 687.625 109.25H648.375ZM663.25 93.25C661.417 93.25 659.875 92.625 658.625 91.375C657.458 90.125 656.875 88.6667 656.875 87C656.875 85.3333 657.458 83.875 658.625 82.625C659.875 81.375 661.417 80.75 663.25 80.75H672.75C674.583 80.75 676.083 81.375 677.25 82.625C678.5 83.875 679.125 85.3333 679.125 87C679.125 88.6667 678.5 90.125 677.25 91.375C676.083 92.625 674.583 93.25 672.75 93.25H663.25ZM663.25 77.25C661.417 77.25 659.875 76.625 658.625 75.375C657.458 74.125 656.875 72.6667 656.875 71C656.875 69.3333 657.458 67.875 658.625 66.625C659.875 65.375 661.417 64.75 663.25 64.75H672.75C674.583 64.75 676.083 65.375 677.25 66.625C678.5 67.875 679.125 69.3333 679.125 71C679.125 72.6667 678.5 74.125 677.25 75.375C676.083 76.625 674.583 77.25 672.75 77.25H663.25ZM663.25 61.25C661.417 61.25 659.875 60.625 658.625 59.375C657.458 58.125 656.875 56.6667 656.875 55C656.875 53.3333 657.458 51.875 658.625 50.625C659.875 49.375 661.417 48.75 663.25 48.75H672.75C674.583 48.75 676.083 49.375 677.25 50.625C678.5 51.875 679.125 53.3333 679.125 55C679.125 56.6667 678.5 58.125 677.25 59.375C676.083 60.625 674.583 61.25 672.75 61.25H663.25ZM663.25 45.25C661.417 45.25 659.875 44.625 658.625 43.375C657.458 42.125 656.875 40.6667 656.875 39C656.875 37.3333 657.458 35.875 658.625 34.625C659.875 33.375 661.417 32.75 663.25 32.75H672.75C674.583 32.75 676.083 33.375 677.25 34.625C678.5 35.875 679.125 37.3333 679.125 39C679.125 40.6667 678.5 42.125 677.25 43.375C676.083 44.625 674.583 45.25 672.75 45.25H663.25ZM663.25 29.25C661.417 29.25 659.875 28.625 658.625 27.375C657.458 26.125 656.875 24.6667 656.875 23C656.875 21.3333 657.458 19.875 658.625 18.625C659.875 17.375 661.417 16.75 663.25 16.75H672.75C674.583 16.75 676.083 17.375 677.25 18.625C678.5 19.875 679.125 21.3333 679.125 23C679.125 24.6667 678.5 26.125 677.25 27.375C676.083 28.625 674.583 29.25 672.75 29.25H663.25ZM648.375 13.25C646.042 13.25 644.208 12.625 642.875 11.375C641.542 10.125 640.875 8.66667 640.875 7C640.875 5.33333 641.542 3.875 642.875 2.625C644.208 1.375 646.042 0.75 648.375 0.75H687.625C689.958 0.75 691.792 1.375 693.125 2.625C694.458 3.875 695.125 5.33333 695.125 7C695.125 8.66667 694.458 10.125 693.125 11.375C691.792 12.625 689.958 13.25 687.625 13.25H648.375ZM720.375 109.25C718.042 109.25 716.208 108.625 714.875 107.375C713.542 106.125 712.875 104.667 712.875 103C712.875 101.333 713.542 99.875 714.875 98.625C716.208 97.375 718.042 96.75 720.375 96.75H743.625C745.958 96.75 747.792 97.375 749.125 98.625C750.458 99.875 751.125 101.333 751.125 103C751.125 104.667 750.458 106.125 749.125 107.375C747.792 108.625 745.958 109.25 743.625 109.25H720.375ZM711.25 93.25C709.417 93.25 707.875 92.625 706.625 91.375C705.458 90.125 704.875 88.6667 704.875 87C704.875 85.3333 705.458 83.875 706.625 82.625C707.875 81.375 709.417 80.75 711.25 80.75H720.75C722.583 80.75 724.083 81.375 725.25 82.625C726.5 83.875 727.125 85.3333 727.125 87C727.125 88.6667 726.5 90.125 725.25 91.375C724.083 92.625 722.583 93.25 720.75 93.25H711.25ZM743.25 93.25C741.417 93.25 739.875 92.625 738.625 91.375C737.458 90.125 736.875 88.6667 736.875 87C736.875 85.3333 737.458 83.875 738.625 82.625C739.875 81.375 741.417 80.75 743.25 80.75H752.75C754.583 80.75 756.083 81.375 757.25 82.625C758.5 83.875 759.125 85.3333 759.125 87C759.125 88.6667 758.5 90.125 757.25 91.375C756.083 92.625 754.583 93.25 752.75 93.25H743.25ZM703.25 77.25C701.417 77.25 699.917 76.625 698.75 75.375C697.5 74.125 696.875 72.6667 696.875 71C696.875 69.3333 697.5 67.875 698.75 66.625C699.917 65.375 701.417 64.75 703.25 64.75H712.75C714.583 64.75 716.083 65.375 717.25 66.625C718.5 67.875 719.125 69.3333 719.125 71C719.125 72.6667 718.5 74.125 717.25 75.375C716.083 76.625 714.583 77.25 712.75 77.25H703.25ZM703.25 61.25C701.417 61.25 699.917 60.625 698.75 59.375C697.5 58.125 696.875 56.6667 696.875 55C696.875 53.3333 697.5 51.875 698.75 50.625C699.917 49.375 701.417 48.75 703.25 48.75H712.75C714.583 48.75 716.083 49.375 717.25 50.625C718.5 51.875 719.125 53.3333 719.125 55C719.125 56.6667 718.5 58.125 717.25 59.375C716.083 60.625 714.583 61.25 712.75 61.25H703.25ZM703.25 45.25C701.417 45.25 699.917 44.625 698.75 43.375C697.5 42.125 696.875 40.6667 696.875 39C696.875 37.3333 697.5 35.875 698.75 34.625C699.917 33.375 701.417 32.75 703.25 32.75H712.75C714.583 32.75 716.083 33.375 717.25 34.625C718.5 35.875 719.125 37.3333 719.125 39C719.125 40.6667 718.5 42.125 717.25 43.375C716.083 44.625 714.583 45.25 712.75 45.25H703.25ZM711.25 29.25C709.417 29.25 707.875 28.625 706.625 27.375C705.458 26.125 704.875 24.6667 704.875 23C704.875 21.3333 705.458 19.875 706.625 18.625C707.875 17.375 709.417 16.75 711.25 16.75H720.75C722.583 16.75 724.083 17.375 725.25 18.625C726.5 19.875 727.125 21.3333 727.125 23C727.125 24.6667 726.5 26.125 725.25 27.375C724.083 28.625 722.583 29.25 720.75 29.25H711.25ZM743.25 29.25C741.417 29.25 739.875 28.625 738.625 27.375C737.458 26.125 736.875 24.6667 736.875 23C736.875 21.3333 737.458 19.875 738.625 18.625C739.875 17.375 741.417 16.75 743.25 16.75H752.75C754.583 16.75 756.083 17.375 757.25 18.625C758.5 19.875 759.125 21.3333 759.125 23C759.125 24.6667 758.5 26.125 757.25 27.375C756.083 28.625 754.583 29.25 752.75 29.25H743.25ZM720.375 13.25C718.042 13.25 716.208 12.625 714.875 11.375C713.542 10.125 712.875 8.66667 712.875 7C712.875 5.33333 713.542 3.875 714.875 2.625C716.208 1.375 718.042 0.75 720.375 0.75H743.625C745.958 0.75 747.792 1.375 749.125 2.625C750.458 3.875 751.125 5.33333 751.125 7C751.125 8.66667 750.458 10.125 749.125 11.375C747.792 12.625 745.958 13.25 743.625 13.25H720.375Z" fill="#E6E6E6"/>
<path d="M319.25 109.25C317.417 109.25 315.917 108.625 314.75 107.375C313.5 106.125 312.875 104.667 312.875 103C312.875 101.333 313.5 99.875 314.75 98.625C315.917 97.375 317.417 96.75 319.25 96.75H328.75C330.583 96.75 332.083 97.375 333.25 98.625C334.5 99.875 335.125 101.333 335.125 103C335.125 104.667 334.5 106.125 333.25 107.375C332.083 108.625 330.583 109.25 328.75 109.25H319.25ZM367.25 109.25C365.417 109.25 363.875 108.625 362.625 107.375C361.458 106.125 360.875 104.667 360.875 103C360.875 101.333 361.458 99.875 362.625 98.625C363.875 97.375 365.417 96.75 367.25 96.75H376.75C378.583 96.75 380.083 97.375 381.25 98.625C382.5 99.875 383.125 101.333 383.125 103C383.125 104.667 382.5 106.125 381.25 107.375C380.083 108.625 378.583 109.25 376.75 109.25H367.25ZM319.25 93.25C317.417 93.25 315.917 92.625 314.75 91.375C313.5 90.125 312.875 88.6667 312.875 87C312.875 85.3333 313.5 83.875 314.75 82.625C315.917 81.375 317.417 80.75 319.25 80.75H328.75C330.583 80.75 332.083 81.375 333.25 82.625C334.5 83.875 335.125 85.3333 335.125 87C335.125 88.6667 334.5 90.125 333.25 91.375C332.083 92.625 330.583 93.25 328.75 93.25H319.25ZM367.25 93.25C365.417 93.25 363.875 92.625 362.625 91.375C361.458 90.125 360.875 88.6667 360.875 87C360.875 85.3333 361.458 83.875 362.625 82.625C363.875 81.375 365.417 80.75 367.25 80.75H376.75C378.583 80.75 380.083 81.375 381.25 82.625C382.5 83.875 383.125 85.3333 383.125 87C383.125 88.6667 382.5 90.125 381.25 91.375C380.083 92.625 378.583 93.25 376.75 93.25H367.25ZM328.375 77.25C326.042 77.25 324.208 76.625 322.875 75.375C321.542 74.125 320.875 72.6667 320.875 71C320.875 69.3333 321.542 67.875 322.875 66.625C324.208 65.375 326.042 64.75 328.375 64.75H367.625C369.958 64.75 371.792 65.375 373.125 66.625C374.458 67.875 375.125 69.3333 375.125 71C375.125 72.6667 374.458 74.125 373.125 75.375C371.792 76.625 369.958 77.25 367.625 77.25H328.375ZM327.25 61.25C325.417 61.25 323.875 60.625 322.625 59.375C321.458 58.125 320.875 56.6667 320.875 55C320.875 53.3333 321.458 51.875 322.625 50.625C323.875 49.375 325.417 48.75 327.25 48.75H336.75C338.583 48.75 340.083 49.375 341.25 50.625C342.5 51.875 343.125 53.3333 343.125 55C343.125 56.6667 342.5 58.125 341.25 59.375C340.083 60.625 338.583 61.25 336.75 61.25H327.25ZM359.25 61.25C357.417 61.25 355.875 60.625 354.625 59.375C353.458 58.125 352.875 56.6667 352.875 55C352.875 53.3333 353.458 51.875 354.625 50.625C355.875 49.375 357.417 48.75 359.25 48.75H368.75C370.583 48.75 372.083 49.375 373.25 50.625C374.5 51.875 375.125 53.3333 375.125 55C375.125 56.6667 374.5 58.125 373.25 59.375C372.083 60.625 370.583 61.25 368.75 61.25H359.25ZM336.375 45.25C334.042 45.25 332.208 44.625 330.875 43.375C329.542 42.125 328.875 40.6667 328.875 39C328.875 37.3333 329.542 35.875 330.875 34.625C332.208 33.375 334.042 32.75 336.375 32.75H359.625C361.958 32.75 363.792 33.375 365.125 34.625C366.458 35.875 367.125 37.3333 367.125 39C367.125 40.6667 366.458 42.125 365.125 43.375C363.792 44.625 361.958 45.25 359.625 45.25H336.375ZM336.375 29.25C334.042 29.25 332.208 28.625 330.875 27.375C329.542 26.125 328.875 24.6667 328.875 23C328.875 21.3333 329.542 19.875 330.875 18.625C332.208 17.375 334.042 16.75 336.375 16.75H359.625C361.958 16.75 363.792 17.375 365.125 18.625C366.458 19.875 367.125 21.3333 367.125 23C367.125 24.6667 366.458 26.125 365.125 27.375C363.792 28.625 361.958 29.25 359.625 29.25H336.375ZM343.25 13.25C341.417 13.25 339.875 12.625 338.625 11.375C337.458 10.125 336.875 8.66667 336.875 7C336.875 5.33333 337.458 3.875 338.625 2.625C339.875 1.375 341.417 0.75 343.25 0.75H352.75C354.583 0.75 356.083 1.375 357.25 2.625C358.5 3.875 359.125 5.33333 359.125 7C359.125 8.66667 358.5 10.125 357.25 11.375C356.083 12.625 354.583 13.25 352.75 13.25H343.25Z" fill="#6A00FF"/>
</svg>
